<svg xmlns="http://www.w3.org/2000/svg" viewBox="0 0 520 128" role="img" aria-labelledby="title desc">
  <title id="title">Terremoto Colombia  Lockup horizontal</title>
  <desc id="desc">Marca Epicentro cívico con wordmark Terremoto Colombia y crédito Mallanet.org</desc>
  <defs>
    <style>
      .ring { fill: none; stroke: #4080f2; stroke-width: 2.25; }
      .ring-soft { stroke-opacity: 0.45; }
      .land { fill: #0f2154; }
      .core { fill: #4080f2; }
      .wave { fill: none; stroke: #4080f2; stroke-width: 2; stroke-linecap: round; stroke-opacity: 0.85; }
      .product { font-family: Sora, system-ui, sans-serif; font-weight: 700; font-size: 28px; fill: #0f2154; letter-spacing: -0.02em; }
      .credit { font-family: "IBM Plex Sans", system-ui, sans-serif; font-weight: 500; font-size: 14px; fill: #5a6b88; letter-spacing: 0.04em; }
    </style>
  </defs>
  <g transform="translate(0 0)">
    <circle class="ring ring-soft" cx="64" cy="58" r="48"/>
    <circle class="ring ring-soft" cx="64" cy="58" r="36"/>
    <circle class="ring" cx="64" cy="58" r="26"/>
    <path class="land" transform="translate(64 58) scale(0.82) translate(-64 -62)"
          d="M68.2 18.5c2.4 1.1 4.8 3.2 5.6 5.8 1.1 3.4-.2 6.2-1.4 9.1-.8 1.9-1.1 3.9.2 5.6 1.6 2.1 4.4 2.4 6.4 3.9 2.3 1.7 3.1 4.6 2.8 7.3-.4 3.2-2.4 5.7-4.1 8.3-1.5 2.3-2.2 5.1-1.4 7.7.9 2.9 3.6 4.6 4.8 7.3 1.4 3.1.6 6.8-1.8 9.1-2.1 2-5.2 2.5-7.9 3.4-2.4.8-4.9 2.1-7.4 1.6-2.8-.6-4.6-3.1-6.6-5.1-1.8-1.8-4.3-2.7-6.7-3.4-2.9-.8-6-.6-8.5-2.3-2.3-1.5-3.4-4.2-3.9-6.8-.6-3.1-.1-6.4 1.2-9.2 1.2-2.5 2.1-5.3 1.4-8-.7-2.7-3.1-4.4-4.4-6.8-1.5-2.7-1.6-6.1-.2-8.9 1.3-2.6 4-4.1 6.5-5.4 2.6-1.4 5.1-3.4 8-3.6 2.6-.2 5 .9 7.4 1.8 2.1.8 4.4.4 6.4-.4 1.6-.6 3-1.8 4.6-2.1z"/>
    <circle class="core" cx="61" cy="54" r="5"/>
    <path class="wave" d="M22 108 Q38 96 52 108 T82 108 T110 108"/>
  </g>
  <g transform="translate(148 42)">
    <text class="credit" x="0" y="0">MALLANET.ORG</text>
    <text class="product" x="0" y="36">Terremoto Colombia</text>
  </g>
</svg>
